<svg data-name="Layer 1" xmlns="http://www.w3.org/2000/svg" viewBox="0 0 676 676"><path d="M676 338a336.852 336.852 0 01-27.22 133.1l-1.12 2.58a338.559 338.559 0 01-368.31 197.25q-3.045-.54-6.08-1.12a334.98111 334.98111 0 01-61.14-18.03q-4.815-1.935-9.56-4.01c-2.16-.94-4.32-1.91-6.46-2.91A338.41424 338.41424 0 010 338C0 151.33 151.33 0 338 0s338 151.33 338 338z" fill="#006fcd"/><path d="M279.35 670.93q-3.045-.54-6.08-1.12c-1.32-38.31-5.85-116.94-21.30005-199.29C243.52 425.45 231.79 379.25 215.52 337.95a412.60387 412.60387 0 00-19.07-41.84c-16.44-31.05-36.38-57.19-60.56-74.9l3.56-4.86q30.165 22.11 54.22 62.08 7.215 11.97 13.86005 25.54 7.125 14.52 13.59 30.83 4.125 10.38 7.97 21.48 16.74 48.195 28.46 109.98 2.59506 13.65 4.94 27.97C274.6 568.2 278.25 636.59 279.35 670.93zM202.57 647.77c-2.16-.94-4.32-1.91-6.46-2.91-2.09-22.7-5.93-50.86-12.95-77.59a254.55666 254.55666 0 00-11.81-35.2c-8.01-18.75-18.38-34.69-31.79-44.52l3.56-4.85c14.04 10.28 24.87 26.53 33.24 45.54 9.43 21.42 15.72 46.35 19.91 70.17 3.11 17.69 5.07 34.78 6.3 49.36z" opacity=".2"/><circle cx="102.26174" cy="190.98167" r="30.08857" opacity=".2"/><circle cx="111.9514" cy="449.99083" r="30.08857" opacity=".2"/><path d="M221.71449 241.52139c-6.38046 35.99732 7.70456 68.59225 7.70456 68.59225s24.42979-25.76825 30.81025-61.76557-7.70457-68.59225-7.70457-68.59225-24.42979 25.76825-30.81024 61.76557zM121.71766 326.97122c34.33494 12.555 68.83676 4.498 68.83676 4.498s-21.16612-28.41279-55.50106-40.96784-68.83675-4.498-68.83675-4.498 21.16611 28.41279 55.50105 40.96784zM115.89534 556.333c24.066 8.80008 48.28314 3.0594 48.28314 3.0594s-14.80161-20.0084-38.86762-28.8085-48.28314-3.0594-48.28314-3.0594 14.80161 20.00842 38.86762 28.8085z" opacity=".2"/><circle cx="337.30608" cy="281.0788" r="131.77014" fill="#d0cde1"/><path d="M285.83337 381.96531s16.47127 78.23852 16.47127 86.47415 78.23852 45.296 78.23852 45.296L450.546 501.382l24.707-74.12071s-41.17817-61.76725-41.17817-86.47415z" fill="#d0cde1"/><path d="M648.78 471.1l-1.12 2.58a338.559 338.559 0 01-368.31 197.25q-3.045-.54-6.08-1.12a334.98111 334.98111 0 01-61.14-18.03q-4.815-1.935-9.56-4.01c-2.16-.94-4.32-1.91-6.46-2.91a337.59273 337.59273 0 01-55.25-32.28l-15.62-45.31 8.78-6.69995 18.06-13.79 19.27-14.71 5.01-3.83 75.61-57.72 5.58-4.26 39.3-30 .01-.01s42.5 69.25 104.27 48.66 60.42-79.63 60.42-79.63zM223.03538 174.916s41.83653-90.64581 122.02321-69.72755 125.50958 52.29566 128.996 83.67306-1.74319 78.44348-1.74319 78.44348-8.716-64.498-64.498-50.55247-142.94147 3.48638-142.94147 3.48638L250.9264 345.74849s-15.6887-22.66145-33.12058-8.71594S167.25335 202.807 223.03538 174.916z" fill="#2f2e41"/><path d="M212.13 651.78q-4.815-1.935-9.56-4.01c-2.16-.94-4.32-1.91-6.46-2.91a338.835 338.835 0 01-87.59-58.7c9.19-12.52 16.72-18.89 16.72-18.89h61.77l9.26 31.14zM594.67 464.32l52.99 9.36a337.94434 337.94434 0 01-56.76 88.57z" fill="#2f2e41"/></svg>